<svg width="825" height="825" xmlns="http://www.w3.org/2000/svg" viewBox="0 0 825 825"><g fill="none" fill-rule="evenodd"><circle fill="#34404D" cx="412.5" cy="412.5" r="412.5"/><path d="M643 328.7h-82.8v82.6h81.4c-18 138-113.8 274.7-229.1 274.7s-211-136.7-229-274.7h80.3v-82.6H182v-.2h.8C197 218.6 275 153 368 139v123.7h87.8V139c93.1 14 172 79.6 186.3 189.5h.8v.2zm-36.9 40c0 13.5-6.4 24.4-14.2 24.4-7.8 0-14.2-11-14.2-24.4 0-13.6 6.4-24.5 14.2-24.5 7.8 0 14.2 11 14.2 24.5zm-109.6 64a42.3 42.3 0 1 0-.1-84.7 42.3 42.3 0 0 0 .1 84.6zm-41.7 147.8a21.2 21.2 0 1 0-.1-42.3 21.2 21.2 0 0 0 0 42.3zm-84.6 0a21.2 21.2 0 1 0 0-42.3 21.2 21.2 0 0 0 0 42.3zm84.6 61.5a21.2 21.2 0 1 0-.1-42.4 21.2 21.2 0 0 0 0 42.4zm-84.6 0a21.2 21.2 0 1 0 0-42.4 21.2 21.2 0 0 0 0 42.4zM219 368.7c0-13.6 6.4-24.5 14.2-24.5 7.8 0 14.2 11 14.2 24.5S240.9 393 233 393c-7.8 0-14.2-11-14.2-24.4zm193.6 98.5s-42.2 15.3-42.2 26.3h84.4c0-11-42.2-26.3-42.2-26.3zm-84-34.6a42.3 42.3 0 1 0-.2-84.6 42.3 42.3 0 0 0 .2 84.6zm84-215.7c13.5 0 24.4 6.4 24.4 14.2 0 7.9-11 14.3-24.4 14.3-13.5 0-24.4-6.4-24.4-14.3 0-7.8 11-14.2 24.4-14.2z" fill="#FFF" fill-rule="nonzero"/></g></svg>